<svg width="100" height="27" viewBox="0 0 100 27" fill="none" xmlns="http://www.w3.org/2000/svg">
<path d="M22.3242 0.40625V26H18.9492V3.18359H9.77344L9.31641 13.3262C9.14062 16.7246 8.78906 19.2793 8.26172 20.9902C7.74609 22.7012 6.98438 23.9609 5.97656 24.7695C4.96875 25.5664 3.62109 25.9766 1.93359 26H0.826172V23.2402L1.5293 23.2051C2.61914 23.123 3.45703 22.7715 4.04297 22.1504C4.62891 21.5176 5.07422 20.5156 5.37891 19.1445C5.68359 17.7734 5.90039 15.6641 6.0293 12.8164L6.55664 0.40625H22.3242ZM27.0879 16.3145C27.0879 14.4512 27.4512 12.7754 28.1777 11.2871C28.916 9.79883 29.9355 8.65039 31.2363 7.8418C32.5488 7.0332 34.043 6.62891 35.7188 6.62891C38.3086 6.62891 40.4004 7.52539 41.9941 9.31836C43.5996 11.1113 44.4023 13.4961 44.4023 16.4727V16.7012C44.4023 18.5527 44.0449 20.2168 43.3301 21.6934C42.627 23.1582 41.6133 24.3008 40.2891 25.1211C38.9766 25.9414 37.4648 26.3516 35.7539 26.3516C33.1758 26.3516 31.084 25.4551 29.4785 23.6621C27.8848 21.8691 27.0879 19.4961 27.0879 16.543V16.3145ZM30.3574 16.7012C30.3574 18.8105 30.8438 20.5039 31.8164 21.7812C32.8008 23.0586 34.1133 23.6973 35.7539 23.6973C37.4062 23.6973 38.7188 23.0527 39.6914 21.7637C40.6641 20.4629 41.1504 18.6465 41.1504 16.3145C41.1504 14.2285 40.6523 12.541 39.6562 11.252C38.6719 9.95117 37.3594 9.30078 35.7188 9.30078C34.1133 9.30078 32.8184 9.93945 31.834 11.2168C30.8496 12.4941 30.3574 14.3223 30.3574 16.7012ZM60.7676 9.66992H51.9961V26H48.7266V6.98047H60.7676V9.66992ZM75.9023 6.98047H79.1543V26H75.9023V12.1309L67.1309 26H63.8789V6.98047H67.1309V20.8672L75.9023 6.98047ZM99.9141 26H96.6621V17.8789H87.9258V26H84.6562V6.98047H87.9258V15.2246H96.6621V6.98047H99.9141V26Z" fill="black"/>
</svg>
